<svg width="24" height="24" viewBox="0 0 24 24" fill="none" xmlns="http://www.w3.org/2000/svg">
<g id="fluent:vehicle-bus-20-regular">
<path id="Vector" d="M10.7998 4.80002C10.6407 4.80002 10.4881 4.86324 10.3755 4.97576C10.263 5.08828 10.1998 5.24089 10.1998 5.40002C10.1998 5.55915 10.263 5.71177 10.3755 5.82429C10.4881 5.93681 10.6407 6.00002 10.7998 6.00002H13.1998C13.3589 6.00002 13.5115 5.93681 13.6241 5.82429C13.7366 5.71177 13.7998 5.55915 13.7998 5.40002C13.7998 5.24089 13.7366 5.08828 13.6241 4.97576C13.5115 4.86324 13.3589 4.80002 13.1998 4.80002H10.7998ZM9.5998 15.6C9.5998 15.9183 9.47338 16.2235 9.24833 16.4486C9.02329 16.6736 8.71806 16.8 8.3998 16.8C8.08154 16.8 7.77632 16.6736 7.55128 16.4486C7.32623 16.2235 7.1998 15.9183 7.1998 15.6C7.1998 15.2818 7.32623 14.9765 7.55128 14.7515C7.77632 14.5265 8.08154 14.4 8.3998 14.4C8.71806 14.4 9.02329 14.5265 9.24833 14.7515C9.47338 14.9765 9.5998 15.2818 9.5998 15.6ZM15.5998 16.8C15.9181 16.8 16.2233 16.6736 16.4483 16.4486C16.6734 16.2235 16.7998 15.9183 16.7998 15.6C16.7998 15.2818 16.6734 14.9765 16.4483 14.7515C16.2233 14.5265 15.9181 14.4 15.5998 14.4C15.2815 14.4 14.9763 14.5265 14.7513 14.7515C14.5262 14.9765 14.3998 15.2818 14.3998 15.6C14.3998 15.9183 14.5262 16.2235 14.7513 16.4486C14.9763 16.6736 15.2815 16.8 15.5998 16.8ZM3.5998 6.60002C3.5998 5.48612 4.0423 4.41783 4.82996 3.63018C5.61761 2.84252 6.68589 2.40002 7.7998 2.40002H16.1998C17.3137 2.40002 18.382 2.84252 19.1697 3.63018C19.9573 4.41783 20.3998 5.48612 20.3998 6.60002V9.60002H21.5998C21.7589 9.60002 21.9115 9.66324 22.0241 9.77576C22.1366 9.88828 22.1998 10.0409 22.1998 10.2C22.1998 10.3592 22.1366 10.5118 22.0241 10.6243C21.9115 10.7368 21.7589 10.8 21.5998 10.8H20.3998V19.8C20.3998 20.2774 20.2102 20.7353 19.8726 21.0728C19.535 21.4104 19.0772 21.6 18.5998 21.6H17.3998C16.9224 21.6 16.4646 21.4104 16.127 21.0728C15.7894 20.7353 15.5998 20.2774 15.5998 19.8V19.2H8.3998V19.8C8.3998 20.2774 8.21016 20.7353 7.8726 21.0728C7.53503 21.4104 7.07719 21.6 6.5998 21.6H5.3998C4.92241 21.6 4.46458 21.4104 4.12701 21.0728C3.78945 20.7353 3.5998 20.2774 3.5998 19.8V10.8H2.3998C2.24067 10.8 2.08806 10.7368 1.97554 10.6243C1.86302 10.5118 1.7998 10.3592 1.7998 10.2C1.7998 10.0409 1.86302 9.88828 1.97554 9.77576C2.08806 9.66324 2.24067 9.60002 2.3998 9.60002H3.5998V6.60002ZM19.1998 6.60002C19.1998 5.80438 18.8837 5.04131 18.3211 4.4787C17.7585 3.9161 16.9955 3.60002 16.1998 3.60002H7.7998C7.00415 3.60002 6.24109 3.9161 5.67848 4.4787C5.11588 5.04131 4.7998 5.80438 4.7998 6.60002V12H19.1998V6.60002ZM16.7998 19.2V19.8C16.7998 19.9592 16.863 20.1118 16.9755 20.2243C17.0881 20.3368 17.2407 20.4 17.3998 20.4H18.5998C18.7589 20.4 18.9115 20.3368 19.0241 20.2243C19.1366 20.1118 19.1998 19.9592 19.1998 19.8V19.2H16.7998ZM4.7998 19.2V19.8C4.7998 19.9592 4.86302 20.1118 4.97554 20.2243C5.08806 20.3368 5.24067 20.4 5.3998 20.4H6.5998C6.75893 20.4 6.91155 20.3368 7.02407 20.2243C7.13659 20.1118 7.1998 19.9592 7.1998 19.8V19.2H4.7998ZM4.7998 18H19.1998V13.2H4.7998V18Z" fill="black"/>
</g>
</svg>
