<svg width="24" height="24" viewBox="0 0 24 24" fill="none" xmlns="http://www.w3.org/2000/svg">
<g id="fluent:vehicle-car-20-regular">
<path id="Vector" d="M16.6324 3.59998C17.3261 3.59984 17.9984 3.84011 18.5349 4.27988C19.0713 4.71965 19.4388 5.33174 19.5748 6.01198L19.8112 7.19998H20.7004C20.9179 7.19998 21.128 7.27875 21.2919 7.4217C21.4558 7.56465 21.5624 7.76211 21.592 7.97758L21.6004 8.09998C21.6004 8.31746 21.5216 8.52759 21.3787 8.69149C21.2357 8.8554 21.0383 8.962 20.8228 8.99158L20.7004 8.99998H20.1712L20.3056 9.67198C20.6793 9.78124 21.0074 10.0087 21.2409 10.3203C21.4743 10.6318 21.6005 11.0107 21.6004 11.4V17.4C21.6004 17.8774 21.4107 18.3352 21.0732 18.6728C20.7356 19.0103 20.2778 19.2 19.8004 19.2H19.2004V20.4C19.2004 20.7182 19.074 21.0235 18.8489 21.2485C18.6239 21.4735 18.3187 21.6 18.0004 21.6C17.6821 21.6 17.3769 21.4735 17.1519 21.2485C16.9268 21.0235 16.8004 20.7182 16.8004 20.4V19.2H7.20039V20.4C7.20039 20.7182 7.07396 21.0235 6.84892 21.2485C6.62388 21.4735 6.31865 21.6 6.00039 21.6C5.68213 21.6 5.37691 21.4735 5.15186 21.2485C4.92682 21.0235 4.80039 20.7182 4.80039 20.4V19.2H4.20039C3.723 19.2 3.26516 19.0103 2.9276 18.6728C2.59003 18.3352 2.40039 17.8774 2.40039 17.4V11.4C2.40031 11.0107 2.52646 10.6318 2.75991 10.3203C2.99336 10.0087 3.32153 9.78124 3.69519 9.67198L3.82839 8.99998H3.30039C3.0617 8.99998 2.83278 8.90515 2.66399 8.73637C2.49521 8.56759 2.40039 8.33867 2.40039 8.09998C2.40039 7.86128 2.49521 7.63236 2.66399 7.46358C2.83278 7.2948 3.0617 7.19998 3.30039 7.19998H4.18839L4.42599 6.01198C4.56195 5.33174 4.92945 4.71965 5.46593 4.27988C6.0024 3.84011 6.6747 3.59984 7.36839 3.59998H16.6324ZM19.8004 10.8H4.20039C4.04126 10.8 3.88865 10.8632 3.77613 10.9757C3.6636 11.0882 3.60039 11.2408 3.60039 11.4V17.4C3.60039 17.5591 3.6636 17.7117 3.77613 17.8242C3.88865 17.9368 4.04126 18 4.20039 18H19.8004C19.9595 18 20.1121 17.9368 20.2247 17.8242C20.3372 17.7117 20.4004 17.5591 20.4004 17.4V11.4C20.4004 11.2408 20.3372 11.0882 20.2247 10.9757C20.1121 10.8632 19.9595 10.8 19.8004 10.8ZM7.20039 13.2C7.51865 13.2 7.82387 13.3264 8.04892 13.5514C8.27396 13.7765 8.40039 14.0817 8.40039 14.4C8.40039 14.7182 8.27396 15.0235 8.04892 15.2485C7.82387 15.4735 7.51865 15.6 7.20039 15.6C6.88213 15.6 6.57691 15.4735 6.35186 15.2485C6.12682 15.0235 6.00039 14.7182 6.00039 14.4C6.00039 14.0817 6.12682 13.7765 6.35186 13.5514C6.57691 13.3264 6.88213 13.2 7.20039 13.2ZM16.8004 13.2C17.1187 13.2 17.4239 13.3264 17.6489 13.5514C17.874 13.7765 18.0004 14.0817 18.0004 14.4C18.0004 14.7182 17.874 15.0235 17.6489 15.2485C17.4239 15.4735 17.1187 15.6 16.8004 15.6C16.4821 15.6 16.1769 15.4735 15.9519 15.2485C15.7268 15.0235 15.6004 14.7182 15.6004 14.4C15.6004 14.0817 15.7268 13.7765 15.9519 13.5514C16.1769 13.3264 16.4821 13.2 16.8004 13.2ZM16.6324 4.79998H7.36839C6.95222 4.79995 6.54889 4.94413 6.22706 5.20799C5.90522 5.47185 5.68476 5.83908 5.60319 6.24718L4.93119 9.59998H19.0684L18.3976 6.24718C18.3161 5.83928 18.0958 5.47221 17.7742 5.20837C17.4526 4.94454 17.0496 4.80023 16.6336 4.79998H16.6324Z" fill="black"/>
</g>
</svg>
