<svg width="18" height="19" viewBox="0 0 18 19" fill="none" xmlns="http://www.w3.org/2000/svg">
<g clip-path="url(#clip0_1_2)">
<mask id="mask0_1_2" style="mask-type:luminance" maskUnits="userSpaceOnUse" x="-921" y="-560" width="1080" height="1806">
<path d="M159 -559.5H-921V1245.75H159V-559.5Z" fill="white"/>
</mask>
<g mask="url(#mask0_1_2)">
<path d="M159 -559.5H-921V1245.75H159V-559.5Z" fill="#F2F2F2"/>
<g filter="url(#filter0_d_1_2)">
<path d="M24 -33H-786C-800.912 -33 -813 -20.9117 -813 -6V163.5C-813 178.412 -800.912 190.5 -786 190.5H24C38.9117 190.5 51 178.412 51 163.5V-6C51 -20.9117 38.9117 -33 24 -33Z" fill="white"/>
</g>
<path d="M9.16742 8.68127C9.10547 8.75259 9.07269 8.84462 9.07562 8.93904C9.07862 9.03347 9.1171 9.12332 9.1834 9.19059C9.24977 9.25787 9.33902 9.29762 9.43337 9.30189C9.52779 9.30624 9.62027 9.27474 9.69242 9.21377L14.9424 3.96377V6.64877C14.944 6.74775 14.984 6.84224 15.054 6.91223C15.124 6.98222 15.2185 7.02223 15.3174 7.02377C15.4169 7.02377 15.5123 6.98426 15.5826 6.91394C15.653 6.84362 15.6924 6.74823 15.6924 6.64877V3.05627C15.6924 2.95682 15.653 2.86144 15.5826 2.79111C15.5123 2.72078 15.4169 2.68127 15.3174 2.68127H11.7249C11.6255 2.68127 11.5301 2.72078 11.4598 2.79111C11.3894 2.86144 11.3499 2.95682 11.3499 3.05627C11.3499 3.15573 11.3894 3.25112 11.4598 3.32144C11.5301 3.39176 11.6255 3.43127 11.7249 3.43127H14.4099L9.16742 8.68127Z" fill="#018AD3"/>
<path d="M13.4071 16.0695H4.59316C3.98666 16.0689 3.40517 15.8277 2.97631 15.3989C2.54746 14.97 2.30626 14.3885 2.30566 13.782V4.96798C2.30626 4.36149 2.54746 3.78 2.97631 3.35114C3.40517 2.92227 3.98666 2.68108 4.59316 2.68048H9.11415C9.2136 2.68048 9.309 2.71999 9.37935 2.79032C9.44962 2.86065 9.48915 2.95603 9.48915 3.05548C9.48915 3.15494 9.44962 3.25032 9.37935 3.32065C9.309 3.39098 9.2136 3.43048 9.11415 3.43048H4.59316C4.18558 3.43108 3.79485 3.59325 3.50665 3.88146C3.21844 4.16967 3.05626 4.56039 3.05566 4.96798V13.782C3.05626 14.1896 3.21844 14.5803 3.50665 14.8685C3.79485 15.1567 4.18558 15.3189 4.59316 15.3195H13.4071C13.8148 15.3189 14.2054 15.1567 14.4937 14.8685C14.7819 14.5803 14.944 14.1896 14.9446 13.782V9.26175C14.9446 9.1623 14.9842 9.0669 15.0545 8.99655C15.1248 8.92628 15.2202 8.88675 15.3196 8.88675C15.4191 8.88675 15.5145 8.92628 15.5848 8.99655C15.6551 9.0669 15.6946 9.1623 15.6946 9.26175V13.782C15.694 14.3885 15.4528 14.97 15.024 15.3989C14.5951 15.8277 14.0137 16.0689 13.4071 16.0695Z" fill="#018AD3"/>
<path d="M19.5 -7.125H-70.5C-73.6066 -7.125 -76.125 -4.6066 -76.125 -1.5V20.25C-76.125 23.3566 -73.6066 25.875 -70.5 25.875H19.5C22.6066 25.875 25.125 23.3566 25.125 20.25V-1.5C25.125 -4.6066 22.6066 -7.125 19.5 -7.125Z" stroke="#018AD3"/>
</g>
</g>
<defs>
<filter id="filter0_d_1_2" x="-817" y="-33" width="872" height="231.5" filterUnits="userSpaceOnUse" color-interpolation-filters="sRGB">
<feFlood flood-opacity="0" result="BackgroundImageFix"/>
<feColorMatrix in="SourceAlpha" type="matrix" values="0 0 0 0 0 0 0 0 0 0 0 0 0 0 0 0 0 0 127 0" result="hardAlpha"/>
<feOffset dy="4"/>
<feGaussianBlur stdDeviation="2"/>
<feComposite in2="hardAlpha" operator="out"/>
<feColorMatrix type="matrix" values="0 0 0 0 0 0 0 0 0 0 0 0 0 0 0 0 0 0 0.05 0"/>
<feBlend mode="normal" in2="BackgroundImageFix" result="effect1_dropShadow_1_2"/>
<feBlend mode="normal" in="SourceGraphic" in2="effect1_dropShadow_1_2" result="shape"/>
</filter>
<clipPath id="clip0_1_2">
<rect width="18" height="18.75" fill="white"/>
</clipPath>
</defs>
</svg>
