<svg width="24" height="24" viewBox="0 0 24 24" fill="none" xmlns="http://www.w3.org/2000/svg">
<g id="ph:airplane-in-flight-light">
<path id="Vector" d="M20.8129 20.25C20.8129 20.3992 20.7537 20.5423 20.6482 20.6477C20.5427 20.7532 20.3996 20.8125 20.2504 20.8125H6.75042C6.60123 20.8125 6.45816 20.7532 6.35267 20.6477C6.24718 20.5423 6.18792 20.3992 6.18792 20.25C6.18792 20.1008 6.24718 19.9577 6.35267 19.8523C6.45816 19.7468 6.60123 19.6875 6.75042 19.6875H20.2504C20.3996 19.6875 20.5427 19.7468 20.6482 19.8523C20.7537 19.9577 20.8129 20.1008 20.8129 20.25ZM23.0629 12.75V15C23.0629 15.1492 23.0037 15.2923 22.8982 15.3977C22.7927 15.5032 22.6496 15.5625 22.5004 15.5625H5.72573C4.95869 15.566 4.21125 15.3204 3.59584 14.8626C2.98042 14.4047 2.53031 13.7594 2.31323 13.0238L0.994165 8.625C0.935797 8.42923 0.923934 8.22253 0.959521 8.02136C0.995108 7.8202 1.07716 7.63012 1.19915 7.46625C1.32114 7.30238 1.4797 7.16925 1.66221 7.07746C1.84471 6.98566 2.04613 6.93774 2.25042 6.9375H3.00042C3.14955 6.93763 3.29253 6.99698 3.39792 7.1025L5.48385 9.1875H7.93073L7.00635 6.41531C6.94057 6.21809 6.92257 6.00806 6.95385 5.80252C6.98514 5.59698 7.0648 5.40181 7.18628 5.23308C7.30777 5.06436 7.4676 4.92691 7.6526 4.83206C7.83761 4.7372 8.04251 4.68766 8.25042 4.6875H9.00041C9.07442 4.68744 9.1477 4.70199 9.21607 4.7303C9.28444 4.75861 9.34656 4.80014 9.39885 4.8525L13.7339 9.1875H19.5004C20.4452 9.1875 21.3514 9.56283 22.0195 10.2309C22.6876 10.899 23.0629 11.8052 23.0629 12.75ZM21.9379 12.75C21.9379 12.1035 21.6811 11.4835 21.224 11.0264C20.7669 10.5693 20.1469 10.3125 19.5004 10.3125H13.5004C13.3513 10.3124 13.2083 10.253 13.1029 10.1475L8.76791 5.8125H8.25042C8.22071 5.81247 8.19143 5.8195 8.16497 5.83301C8.13852 5.84652 8.11565 5.86612 8.09826 5.8902C8.08086 5.91428 8.06944 5.94214 8.06492 5.9715C8.06041 6.00086 8.06293 6.03087 8.07229 6.05906L9.24417 9.57188C9.27239 9.65643 9.28012 9.74648 9.26671 9.83461C9.2533 9.92274 9.21914 10.0064 9.16705 10.0787C9.11495 10.1511 9.04641 10.21 8.96707 10.2506C8.88773 10.2913 8.79987 10.3125 8.71073 10.3125H5.25042C5.10128 10.3124 4.9583 10.253 4.85292 10.1475L2.76792 8.0625H2.25042C2.22113 8.06207 2.19219 8.06876 2.16606 8.08199C2.13993 8.09522 2.11741 8.11459 2.10042 8.13844C2.08248 8.16149 2.07046 8.18857 2.0654 8.21733C2.06033 8.24609 2.06238 8.27565 2.07135 8.30344L3.38948 12.7003C3.53829 13.2038 3.84651 13.6454 4.26781 13.9586C4.68911 14.2719 5.20072 14.4399 5.72573 14.4375H21.9379V12.75Z" fill="#018AD3"/>
</g>
</svg>
