<svg width="24" height="24" viewBox="0 0 24 24" fill="none" xmlns="http://www.w3.org/2000/svg">
<g id="mingcute:down-line" clip-path="url(#clip0_234_7761)">
<g id="Group">
<path id="Vector" fill-rule="evenodd" clip-rule="evenodd" d="M12.7073 15.707C12.5198 15.8944 12.2655 15.9998 12.0003 15.9998C11.7352 15.9998 11.4809 15.8944 11.2933 15.707L5.63634 10.05C5.54083 9.95773 5.46465 9.84739 5.41224 9.72538C5.35983 9.60338 5.33225 9.47216 5.33109 9.33938C5.32994 9.2066 5.35524 9.07492 5.40552 8.95202C5.4558 8.82913 5.53006 8.71747 5.62395 8.62358C5.71784 8.52969 5.82949 8.45544 5.95239 8.40515C6.07529 8.35487 6.20696 8.32957 6.33974 8.33073C6.47252 8.33188 6.60374 8.35947 6.72575 8.41188C6.84775 8.46428 6.9581 8.54047 7.05034 8.63598L12.0003 13.586L16.9503 8.63598C17.1389 8.45382 17.3915 8.35302 17.6537 8.3553C17.9159 8.35758 18.1668 8.46275 18.3522 8.64816C18.5376 8.83357 18.6427 9.08438 18.645 9.34658C18.6473 9.60877 18.5465 9.86137 18.3643 10.05L12.7073 15.707Z" fill="#018AD3"/>
</g>
</g>
<defs>
<clipPath id="clip0_234_7761">
<rect width="24" height="24" fill="white"/>
</clipPath>
</defs>
</svg>
