<svg width="76" height="76" viewBox="0 0 76 76" fill="none" xmlns="http://www.w3.org/2000/svg">
<rect width="76" height="76" fill="#1E1E1E"/>
<g clip-path="url(#clip0_0_1)">
<rect width="1440" height="1024" transform="translate(-682 -715)" fill="#F2F2F2"/>
<g clip-path="url(#clip1_0_1)">
<path d="M31.867 63.8125C35.0899 63.8125 38.3282 63.3187 41.4899 62.3225C49.6162 59.762 56.2591 54.1901 60.1947 46.6332C64.1306 39.0765 64.8876 30.4392 62.3273 22.3128C59.7668 14.1864 54.1949 7.54355 46.638 3.60789C31.0381 -4.51638 11.7371 1.5648 3.61286 17.1647C3.00219 18.3372 3.45774 19.7829 4.63025 20.3933C5.80246 21.004 7.24824 20.5487 7.85891 19.3759C14.7638 6.11781 31.1679 0.94893 44.4264 7.85408C50.8493 11.1991 55.5847 16.8449 57.7611 23.7517C59.9375 30.6585 59.2939 37.9993 55.9489 44.4219C52.6038 50.8448 46.958 55.5802 40.0512 57.7566C33.1446 59.9327 25.8036 59.2894 19.381 55.9443C12.6263 52.4265 7.6361 46.1828 5.6898 38.8142C5.03326 36.3286 4.73238 33.7697 4.79546 31.2087C4.82797 29.8872 3.78312 28.7894 2.46159 28.7566C1.13545 28.7276 0.042202 29.7689 0.00939941 31.0904C-0.0649681 34.1037 0.288761 37.1134 1.06093 40.0367C3.35057 48.7056 9.22186 56.0513 17.1695 60.1904C21.7862 62.5943 26.8069 63.8122 31.867 63.8125Z" fill="#018AD3" fill-opacity="0.5"/>
<path d="M31.9033 48.3898C22.7955 48.3898 15.4121 41.0064 15.4121 31.8986C15.4121 22.7907 22.7955 15.4073 31.9033 15.4073C41.0112 15.4073 48.3945 22.7907 48.3945 31.8986C48.3945 41.0064 41.0112 48.3898 31.9033 48.3898Z" fill="#9DDCFC" fill-opacity="0.5"/>
<path d="M31.9041 50.7838C42.3173 50.7838 50.7891 42.312 50.7891 31.8988C50.7891 21.4857 42.3172 13.0139 31.9041 13.0139C21.4911 13.0139 13.0192 21.4857 13.0192 31.8988C13.0192 42.3122 21.491 50.7838 31.9041 50.7838ZM31.9041 17.8016C39.6775 17.8016 46.0017 24.1258 46.0017 31.8991C46.0017 39.6725 39.6776 45.9967 31.9041 45.9967C24.1306 45.9967 17.8066 39.6726 17.8066 31.8991C17.8066 24.1256 24.1308 17.8016 31.9041 17.8016Z" fill="#018AD3" fill-opacity="0.5"/>
<path d="M67.6093 75.9951C69.8271 75.9951 71.9634 75.1162 73.5423 73.5374C75.2526 71.8269 76.1417 69.4616 75.9816 67.0483C75.8214 64.6347 74.6274 62.4079 72.706 60.9383L62.8985 53.4385C61.9453 52.7097 60.6001 52.7992 59.7517 53.6472L53.6523 59.7467C52.804 60.595 52.7146 61.9406 53.4436 62.8934L60.9434 72.7009C62.4129 74.6223 64.6398 75.8163 67.0534 75.9765C67.2388 75.9888 67.4245 75.9951 67.6093 75.9951ZM61.6551 58.5142L69.7978 64.741C70.6354 65.3813 71.1346 66.3132 71.2046 67.3649C71.2745 68.4167 70.9025 69.4065 70.157 70.152C69.4116 70.8974 68.4225 71.2694 67.37 71.1995C66.3182 71.1296 65.3863 70.6302 64.7462 69.7929L58.5193 61.6499L61.6551 58.5142Z" fill="#018AD3" fill-opacity="0.5"/>
</g>
</g>
<defs>
<clipPath id="clip0_0_1">
<rect width="1440" height="1024" fill="white" transform="translate(-682 -715)"/>
</clipPath>
<clipPath id="clip1_0_1">
<rect width="76" height="76" fill="white" transform="matrix(-1 0 0 1 76 0)"/>
</clipPath>
</defs>
</svg>
