<svg width="24" height="24" viewBox="0 0 24 24" fill="none" xmlns="http://www.w3.org/2000/svg">
<g id="pepicons-pencil:train">
<g id="Group">
<path id="Vector" fill-rule="evenodd" clip-rule="evenodd" d="M20.3996 5.39995C20.3996 4.28604 19.9571 3.21776 19.1695 2.4301C18.3818 1.64245 17.3135 1.19995 16.1996 1.19995H7.79961C6.6857 1.19995 5.61741 1.64245 4.82976 2.4301C4.04211 3.21776 3.59961 4.28604 3.59961 5.39995V13.746C3.59922 14.6432 3.8862 15.5171 4.4185 16.2394C4.95081 16.9617 5.70045 17.4946 6.55761 17.76C8.31894 18.3125 10.1537 18.5957 11.9996 18.6C13.8456 18.5953 15.6803 18.3117 17.4416 17.7587C18.2986 17.4935 19.0481 16.9608 19.5804 16.2387C20.1126 15.5166 20.3997 14.643 20.3996 13.746V5.39995ZM4.79961 13.746V5.39995C4.79961 4.6043 5.11568 3.84124 5.67829 3.27863C6.2409 2.71602 7.00396 2.39995 7.79961 2.39995H16.1996C16.9953 2.39995 17.7583 2.71602 18.3209 3.27863C18.8835 3.84124 19.1996 4.6043 19.1996 5.39995V13.746C19.1999 14.3867 18.995 15.0107 18.6149 15.5266C18.2349 16.0424 17.6996 16.4231 17.0876 16.6128C15.441 17.1301 13.7256 17.3955 11.9996 17.4C10.2736 17.3955 8.55825 17.1301 6.91161 16.6128C6.29957 16.4231 5.76434 16.0424 5.38429 15.5266C5.00424 15.0107 4.79935 14.3867 4.79961 13.746Z" fill="black"/>
<path id="Vector_2" fill-rule="evenodd" clip-rule="evenodd" d="M7.8 15.6C8.27739 15.6 8.73523 15.4104 9.07279 15.0728C9.41036 14.7352 9.6 14.2774 9.6 13.8C9.6 13.3226 9.41036 12.8648 9.07279 12.5272C8.73523 12.1896 8.27739 12 7.8 12C7.32261 12 6.86477 12.1896 6.52721 12.5272C6.18964 12.8648 6 13.3226 6 13.8C6 14.2774 6.18964 14.7352 6.52721 15.0728C6.86477 15.4104 7.32261 15.6 7.8 15.6ZM7.8 13.2C7.95913 13.2 8.11174 13.2632 8.22426 13.3757C8.33679 13.4883 8.4 13.6409 8.4 13.8C8.4 13.9591 8.33679 14.1117 8.22426 14.2243C8.11174 14.3368 7.95913 14.4 7.8 14.4C7.64087 14.4 7.48826 14.3368 7.37574 14.2243C7.26321 14.1117 7.2 13.9591 7.2 13.8C7.2 13.6409 7.26321 13.4883 7.37574 13.3757C7.48826 13.2632 7.64087 13.2 7.8 13.2ZM16.2 15.6C16.6774 15.6 17.1352 15.4104 17.4728 15.0728C17.8104 14.7352 18 14.2774 18 13.8C18 13.3226 17.8104 12.8648 17.4728 12.5272C17.1352 12.1896 16.6774 12 16.2 12C15.7226 12 15.2648 12.1896 14.9272 12.5272C14.5896 12.8648 14.4 13.3226 14.4 13.8C14.4 14.2774 14.5896 14.7352 14.9272 15.0728C15.2648 15.4104 15.7226 15.6 16.2 15.6ZM16.2 13.2C16.3591 13.2 16.5117 13.2632 16.6243 13.3757C16.7368 13.4883 16.8 13.6409 16.8 13.8C16.8 13.9591 16.7368 14.1117 16.6243 14.2243C16.5117 14.3368 16.3591 14.4 16.2 14.4C16.0409 14.4 15.8883 14.3368 15.7757 14.2243C15.6632 14.1117 15.6 13.9591 15.6 13.8C15.6 13.6409 15.6632 13.4883 15.7757 13.3757C15.8883 13.2632 16.0409 13.2 16.2 13.2Z" fill="black"/>
<path id="Vector_3" d="M18.6381 22.4112C18.6969 22.5561 18.8099 22.6723 18.9531 22.7352C19.0963 22.798 19.2584 22.8024 19.4048 22.7475C19.5513 22.6926 19.6704 22.5827 19.737 22.4412C19.8036 22.2997 19.8124 22.1378 19.7613 21.99L17.9613 17.19C17.9016 17.0467 17.7886 16.9322 17.6461 16.8705C17.5037 16.8088 17.3429 16.8047 17.1975 16.8591C17.0521 16.9134 16.9334 17.022 16.8664 17.1621C16.7994 17.3021 16.7893 17.4626 16.8381 17.61L18.6381 22.41V22.4112ZM6.63814 17.19C6.66355 17.1134 6.70414 17.0427 6.75749 16.9822C6.81084 16.9217 6.87585 16.8725 6.94864 16.8377C7.02142 16.8029 7.10048 16.7831 7.18108 16.7795C7.26169 16.7759 7.34219 16.7887 7.41777 16.8169C7.49334 16.8452 7.56244 16.8884 7.62093 16.944C7.67942 16.9996 7.7261 17.0664 7.75817 17.1404C7.79025 17.2144 7.80706 17.2942 7.8076 17.3749C7.80815 17.4556 7.79241 17.5355 7.76134 17.61L5.96134 22.41C5.90156 22.5533 5.78858 22.6678 5.64614 22.7295C5.50369 22.7912 5.34287 22.7953 5.19747 22.7409C5.05207 22.6866 4.93339 22.5779 4.86639 22.4379C4.79938 22.2979 4.78926 22.1373 4.83814 21.99L6.63814 17.19Z" fill="black"/>
<path id="Vector_4" fill-rule="evenodd" clip-rule="evenodd" d="M18 5.99998C18 5.36346 17.7471 4.75301 17.2971 4.30292C16.847 3.85283 16.2365 3.59998 15.6 3.59998H8.4C7.76348 3.59998 7.15303 3.85283 6.70294 4.30292C6.25286 4.75301 6 5.36346 6 5.99998V9.07798C6.00004 9.59809 6.16904 10.1041 6.48156 10.5199C6.79408 10.9356 7.23319 11.2386 7.7328 11.3832C9.1536 11.796 10.5768 12 12 12C13.4232 12 14.8464 11.7948 16.2672 11.3832C16.7668 11.2386 17.2059 10.9356 17.5184 10.5199C17.831 10.1041 18 9.59809 18 9.07798V5.99998ZM7.2 9.07798V5.99998C7.2 5.68172 7.32643 5.37649 7.55147 5.15145C7.77652 4.9264 8.08174 4.79998 8.4 4.79998H15.6C15.9183 4.79998 16.2235 4.9264 16.4485 5.15145C16.6736 5.37649 16.8 5.68172 16.8 5.99998V9.07798C16.7998 9.33793 16.7153 9.5908 16.559 9.79856C16.4028 10.0063 16.1833 10.1577 15.9336 10.23C14.6559 10.6048 13.3315 10.7967 12 10.8C10.6908 10.8 9.3792 10.6104 8.0664 10.2312C7.8165 10.1589 7.59687 10.0073 7.4406 9.79928C7.28433 9.59128 7.19989 9.33813 7.2 9.07798Z" fill="black"/>
<path id="Vector_5" d="M6.29922 20.9999C6.14009 20.9999 5.98748 20.9367 5.87495 20.8242C5.76243 20.7117 5.69922 20.5591 5.69922 20.3999C5.69922 20.2408 5.76243 20.0882 5.87495 19.9757C5.98748 19.8631 6.14009 19.7999 6.29922 19.7999H18.2992C18.4583 19.7999 18.611 19.8631 18.7235 19.9757C18.836 20.0882 18.8992 20.2408 18.8992 20.3999C18.8992 20.5591 18.836 20.7117 18.7235 20.8242C18.611 20.9367 18.4583 20.9999 18.2992 20.9999H6.29922Z" fill="black"/>
</g>
</g>
</svg>
